<?xml version="1.0" encoding="utf-8"?>
<!-- Uploaded to: SVG Repo, www.svgrepo.com, Generator: SVG Repo Mixer Tools -->
<svg version="1.1" id="Uploaded to svgrepo.com" xmlns="http://www.w3.org/2000/svg" xmlns:xlink="http://www.w3.org/1999/xlink" 
	 width="800px" height="800px" viewBox="0 0 32 32" xml:space="preserve">
<style type="text/css">
	.pictogram_een{fill:#F4D6B0;}
	.pictogram_twee{fill:#F8AD89;}
	.pictogram_zes{fill:#0C6667;}
	.pictogram_vijf{fill:#01A59C;}
	.st0{fill:#E54D2E;}
	.st1{fill:#F8AD89;}
	.st2{fill:#F27261;}
	.st3{fill:none;}
	.st4{fill:#01A59C;}
	.st5{fill:#008A74;}
</style>
<g>
	<path class="pictogram_twee" d="M4,16c0,6.627,5.373,12,12,12v-4h-3.5C10.019,24,8,21.981,8,19.5v-5c0-2.481,2.019-4.5,4.5-4.5
		h0.222c-0.492-0.589-0.48-1.457,0.073-2.011c0.586-0.586,1.535-0.586,2.121,0L16,9.073V4C9.373,4,4,9.373,4,16z"/>
	<path class="pictogram_twee" d="M13.856,15.4c-0.384,0-0.768-0.146-1.061-0.439c-0.538-0.538-0.558-1.372-0.107-1.96H12.5
		c-0.827,0-1.5,0.673-1.5,1.5v5c0,0.827,0.673,1.5,1.5,1.5H16v-7.123l-1.083,1.083C14.624,15.253,14.24,15.4,13.856,15.4z"/>
	<path class="pictogram_zes" d="M4,16C4,9.373,9.373,4,16,4V0C7.163,0,0,7.163,0,16s7.163,16,16,16v-4C9.373,28,4,22.627,4,16z"/>
	<path class="pictogram_vijf" d="M16,0v4c6.627,0,12,5.373,12,12c0,6.627-5.373,12-12,12v4c8.837,0,16-7.163,16-16S24.837,0,16,0z"
		/>
	<path class="pictogram_een" d="M16,4v5.073l2.402,2.402L16,13.877V21h2.5c1.889,0,1.5-0.674,1.5-2.5c0-0.828,0.671-1.5,1.5-1.5
		s1.5,0.672,1.5,1.5v2c0,1.963-1.977,3.5-4.5,3.5H16v4c6.627,0,12-5.373,12-12C28,9.373,22.627,4,16,4z M20.636,14.96
		c-0.293,0.293-0.677,0.439-1.061,0.439s-0.768-0.146-1.061-0.439c-0.586-0.586-0.586-1.535,0-2.121l1.364-1.364l-1.364-1.364
		c-0.586-0.586-0.586-1.535,0-2.121s1.535-0.586,2.121,0l3.485,3.485L20.636,14.96z"/>
	<path class="pictogram_zes" d="M19.879,11.475l-1.364,1.364c-0.586,0.586-0.586,1.535,0,2.121c0.586,0.586,1.535,0.586,2.121,0
		l3.485-3.485l-3.485-3.485c-0.586-0.586-1.535-0.586-2.121,0s-0.586,1.535,0,2.121L19.879,11.475z"/>
	<path class="pictogram_zes" d="M21.5,17c-0.829,0-1.5,0.672-1.5,1.5c0,1.826,0.389,2.5-1.5,2.5h-6c-0.827,0-1.5-0.673-1.5-1.5v-5
		c0-0.827,0.673-1.5,1.5-1.5h0.188c-0.451,0.588-0.432,1.422,0.107,1.96c0.586,0.586,1.535,0.586,2.121,0l3.485-3.485l-3.485-3.485
		c-0.586-0.586-1.535-0.586-2.121,0C12.242,8.543,12.23,9.411,12.722,10H12.5C10.019,10,8,12.019,8,14.5v5
		c0,2.481,2.019,4.5,4.5,4.5h6c2.523,0,4.5-1.537,4.5-3.5v-2C23,17.672,22.329,17,21.5,17z"/>
</g>
</svg>